# xmcd
#
# Track frame offsets:
#       150
#       12680
#       27347
#       40560
#       53322
#       64452
#       77000
#       90725
#       103702
#       115200
#       128805
#       142382
#       154647
#       167042
#
# Disc length: 2393 seconds
#
# Revision: 1
# Processed by: cddbd v1.5.1PL0 Copyright (c) Steve Scherf et al.
# Submitted via: MusiCat 1.1
#
DISCID=b809570e
DTITLE=Nino Soli e Orchestra Romântica de Napoles - Io Che Amo Solo Te
DYEAR=1900
DGENRE=
TTITLE0=Mia Gioconda
TTITLE1=Al Di La
TTITLE2=Io Che Amo Solo Te
TTITLE3=Amore Scusami
TTITLE4=Non Pensare a Me
TTITLE5=Quando M'innamoro
TTITLE6=Ti Voglio Tanto Bene
TTITLE7=Volare (Nel Blu Pinto Di Blu)
TTITLE8=Il Mondo
TTITLE9=Quando, Quando, Quando
TTITLE10=La Estrada Del Bosco
TTITLE11=Non Dimenticar
TTITLE12=Mala Femena
TTITLE13=Roberta
EXTD=\n\n
EXTT0=
EXTT1=
EXTT2=
EXTT3=
EXTT4=
EXTT5=
EXTT6=
EXTT7=
EXTT8=
EXTT9=
EXTT10=
EXTT11=
EXTT12=
EXTT13=
PLAYORDER=
